<mxfile host="app.diagrams.net" modified="2021-08-25T06:28:07.907Z" agent="5.0 (Windows NT 10.0; Win64; x64) AppleWebKit/537.36 (KHTML, like Gecko) Chrome/92.0.4515.159 Safari/537.36" etag="uKm-hXdT-k7l7xRWPEIl" version="14.9.8" type="github" pages="4">
  <diagram id="OEG4e9ehiqLTb2lYe-K0" name="Page-1">
    <mxGraphModel dx="1038" dy="555" grid="1" gridSize="10" guides="1" tooltips="1" connect="1" arrows="1" fold="1" page="1" pageScale="1" pageWidth="850" pageHeight="1100" math="0" shadow="0">
      <root>
        <mxCell id="0" />
        <mxCell id="1" parent="0" />
        <mxCell id="Dy5hrTtoxzpfE2Pfce_t-9" style="edgeStyle=orthogonalEdgeStyle;rounded=0;orthogonalLoop=1;jettySize=auto;html=1;" parent="1" source="Dy5hrTtoxzpfE2Pfce_t-1" target="Dy5hrTtoxzpfE2Pfce_t-6" edge="1">
          <mxGeometry relative="1" as="geometry" />
        </mxCell>
        <mxCell id="Dy5hrTtoxzpfE2Pfce_t-10" value="Http" style="edgeLabel;html=1;align=center;verticalAlign=middle;resizable=0;points=[];" parent="Dy5hrTtoxzpfE2Pfce_t-9" vertex="1" connectable="0">
          <mxGeometry x="-0.2825" y="4" relative="1" as="geometry">
            <mxPoint as="offset" />
          </mxGeometry>
        </mxCell>
        <mxCell id="Dy5hrTtoxzpfE2Pfce_t-1" value="React&amp;nbsp;" style="rounded=1;whiteSpace=wrap;html=1;fillColor=#d5e8d4;strokeColor=#82b366;" parent="1" vertex="1">
          <mxGeometry x="100" y="120" width="120" height="100" as="geometry" />
        </mxCell>
        <mxCell id="Dy5hrTtoxzpfE2Pfce_t-16" style="edgeStyle=orthogonalEdgeStyle;rounded=0;orthogonalLoop=1;jettySize=auto;html=1;" parent="1" source="Dy5hrTtoxzpfE2Pfce_t-2" target="Dy5hrTtoxzpfE2Pfce_t-12" edge="1">
          <mxGeometry relative="1" as="geometry" />
        </mxCell>
        <mxCell id="Dy5hrTtoxzpfE2Pfce_t-24" style="edgeStyle=orthogonalEdgeStyle;shape=link;rounded=0;orthogonalLoop=1;jettySize=auto;html=1;entryX=0;entryY=0.5;entryDx=0;entryDy=0;" parent="1" source="Dy5hrTtoxzpfE2Pfce_t-2" target="Dy5hrTtoxzpfE2Pfce_t-23" edge="1">
          <mxGeometry relative="1" as="geometry" />
        </mxCell>
        <mxCell id="Dy5hrTtoxzpfE2Pfce_t-25" value="http" style="edgeLabel;html=1;align=center;verticalAlign=middle;resizable=0;points=[];" parent="Dy5hrTtoxzpfE2Pfce_t-24" vertex="1" connectable="0">
          <mxGeometry x="0.0437" y="1" relative="1" as="geometry">
            <mxPoint as="offset" />
          </mxGeometry>
        </mxCell>
        <mxCell id="Dy5hrTtoxzpfE2Pfce_t-2" value="Angular" style="rounded=1;whiteSpace=wrap;html=1;fillColor=#d5e8d4;strokeColor=#82b366;" parent="1" vertex="1">
          <mxGeometry x="100" y="280" width="120" height="100" as="geometry" />
        </mxCell>
        <mxCell id="Dy5hrTtoxzpfE2Pfce_t-3" value="" style="endArrow=none;dashed=1;html=1;dashPattern=1 3;strokeWidth=2;" parent="1" edge="1">
          <mxGeometry width="50" height="50" relative="1" as="geometry">
            <mxPoint x="300" y="560" as="sourcePoint" />
            <mxPoint x="300" y="30" as="targetPoint" />
          </mxGeometry>
        </mxCell>
        <mxCell id="Dy5hrTtoxzpfE2Pfce_t-4" value="Mobile APP" style="rounded=1;whiteSpace=wrap;html=1;fillColor=#d5e8d4;strokeColor=#82b366;" parent="1" vertex="1">
          <mxGeometry x="100" y="440" width="120" height="100" as="geometry" />
        </mxCell>
        <mxCell id="Dy5hrTtoxzpfE2Pfce_t-8" style="edgeStyle=orthogonalEdgeStyle;rounded=0;orthogonalLoop=1;jettySize=auto;html=1;entryX=1;entryY=0.5;entryDx=0;entryDy=0;" parent="1" source="Dy5hrTtoxzpfE2Pfce_t-5" target="Dy5hrTtoxzpfE2Pfce_t-6" edge="1">
          <mxGeometry relative="1" as="geometry" />
        </mxCell>
        <mxCell id="Dy5hrTtoxzpfE2Pfce_t-14" style="edgeStyle=orthogonalEdgeStyle;rounded=0;orthogonalLoop=1;jettySize=auto;html=1;" parent="1" source="Dy5hrTtoxzpfE2Pfce_t-5" target="Dy5hrTtoxzpfE2Pfce_t-12" edge="1">
          <mxGeometry relative="1" as="geometry" />
        </mxCell>
        <mxCell id="Dy5hrTtoxzpfE2Pfce_t-5" value="" style="shape=cylinder3;whiteSpace=wrap;html=1;boundedLbl=1;backgroundOutline=1;size=15;fillColor=#fff2cc;strokeColor=#d6b656;" parent="1" vertex="1">
          <mxGeometry x="750" y="270" width="60" height="80" as="geometry" />
        </mxCell>
        <mxCell id="Dy5hrTtoxzpfE2Pfce_t-7" style="edgeStyle=orthogonalEdgeStyle;rounded=0;orthogonalLoop=1;jettySize=auto;html=1;entryX=0;entryY=0.5;entryDx=0;entryDy=0;entryPerimeter=0;" parent="1" source="Dy5hrTtoxzpfE2Pfce_t-6" target="Dy5hrTtoxzpfE2Pfce_t-5" edge="1">
          <mxGeometry relative="1" as="geometry" />
        </mxCell>
        <mxCell id="Dy5hrTtoxzpfE2Pfce_t-11" style="edgeStyle=orthogonalEdgeStyle;rounded=0;orthogonalLoop=1;jettySize=auto;html=1;" parent="1" source="Dy5hrTtoxzpfE2Pfce_t-6" target="Dy5hrTtoxzpfE2Pfce_t-1" edge="1">
          <mxGeometry relative="1" as="geometry" />
        </mxCell>
        <mxCell id="Dy5hrTtoxzpfE2Pfce_t-6" value=".NET" style="rounded=0;whiteSpace=wrap;html=1;fillColor=#dae8fc;strokeColor=#6c8ebf;" parent="1" vertex="1">
          <mxGeometry x="530" y="140" width="120" height="60" as="geometry" />
        </mxCell>
        <mxCell id="Dy5hrTtoxzpfE2Pfce_t-13" style="edgeStyle=orthogonalEdgeStyle;rounded=0;orthogonalLoop=1;jettySize=auto;html=1;entryX=0;entryY=0.5;entryDx=0;entryDy=0;entryPerimeter=0;" parent="1" source="Dy5hrTtoxzpfE2Pfce_t-12" target="Dy5hrTtoxzpfE2Pfce_t-5" edge="1">
          <mxGeometry relative="1" as="geometry">
            <mxPoint x="690" y="360" as="targetPoint" />
          </mxGeometry>
        </mxCell>
        <mxCell id="Dy5hrTtoxzpfE2Pfce_t-15" style="edgeStyle=orthogonalEdgeStyle;rounded=0;orthogonalLoop=1;jettySize=auto;html=1;" parent="1" source="Dy5hrTtoxzpfE2Pfce_t-12" target="Dy5hrTtoxzpfE2Pfce_t-2" edge="1">
          <mxGeometry relative="1" as="geometry" />
        </mxCell>
        <mxCell id="Dy5hrTtoxzpfE2Pfce_t-12" value="Java/Spring" style="rounded=0;whiteSpace=wrap;html=1;fillColor=#dae8fc;strokeColor=#6c8ebf;" parent="1" vertex="1">
          <mxGeometry x="530" y="280" width="120" height="100" as="geometry" />
        </mxCell>
        <mxCell id="Dy5hrTtoxzpfE2Pfce_t-21" value="Front End" style="text;html=1;strokeColor=none;fillColor=none;align=center;verticalAlign=middle;whiteSpace=wrap;rounded=0;" parent="1" vertex="1">
          <mxGeometry x="110" y="50" width="160" height="20" as="geometry" />
        </mxCell>
        <mxCell id="Dy5hrTtoxzpfE2Pfce_t-22" value="Backend" style="text;html=1;strokeColor=none;fillColor=none;align=center;verticalAlign=middle;whiteSpace=wrap;rounded=0;" parent="1" vertex="1">
          <mxGeometry x="500" y="50" width="160" height="20" as="geometry" />
        </mxCell>
        <mxCell id="Dy5hrTtoxzpfE2Pfce_t-23" value="Dummy Server" style="rounded=0;whiteSpace=wrap;html=1;fillColor=#f8cecc;strokeColor=#b85450;" parent="1" vertex="1">
          <mxGeometry x="480" y="470" width="120" height="60" as="geometry" />
        </mxCell>
        <mxCell id="Dy5hrTtoxzpfE2Pfce_t-26" value="Http Get: Fetch data&lt;br&gt;Http: Post: Create data&lt;br&gt;Http Delete: Delete data&lt;br&gt;Http Put: Update data" style="text;html=1;strokeColor=none;fillColor=none;align=center;verticalAlign=middle;whiteSpace=wrap;rounded=0;" parent="1" vertex="1">
          <mxGeometry x="330" y="360" width="200" height="70" as="geometry" />
        </mxCell>
      </root>
    </mxGraphModel>
  </diagram>
  <diagram id="UTsXxPMXeWIuM2yZrGho" name="SPA">
    <mxGraphModel dx="1038" dy="555" grid="1" gridSize="10" guides="1" tooltips="1" connect="1" arrows="1" fold="1" page="1" pageScale="1" pageWidth="850" pageHeight="1100" math="0" shadow="0">
      <root>
        <mxCell id="9e54krIU4_uGRQ3oxqOW-0" />
        <mxCell id="9e54krIU4_uGRQ3oxqOW-1" parent="9e54krIU4_uGRQ3oxqOW-0" />
        <mxCell id="9e54krIU4_uGRQ3oxqOW-20" value="" style="rounded=1;whiteSpace=wrap;html=1;" parent="9e54krIU4_uGRQ3oxqOW-1" vertex="1">
          <mxGeometry x="80" y="390" width="220" height="180" as="geometry" />
        </mxCell>
        <mxCell id="9e54krIU4_uGRQ3oxqOW-24" value="Confirmation" style="rounded=1;whiteSpace=wrap;html=1;" parent="9e54krIU4_uGRQ3oxqOW-1" vertex="1">
          <mxGeometry x="200" y="490" width="70" height="60" as="geometry" />
        </mxCell>
        <mxCell id="9e54krIU4_uGRQ3oxqOW-21" value="SearchFlight" style="rounded=1;whiteSpace=wrap;html=1;" parent="9e54krIU4_uGRQ3oxqOW-1" vertex="1">
          <mxGeometry x="90" y="410" width="80" height="60" as="geometry" />
        </mxCell>
        <mxCell id="9e54krIU4_uGRQ3oxqOW-9" style="edgeStyle=orthogonalEdgeStyle;rounded=0;orthogonalLoop=1;jettySize=auto;html=1;" parent="9e54krIU4_uGRQ3oxqOW-1" source="9e54krIU4_uGRQ3oxqOW-2" target="9e54krIU4_uGRQ3oxqOW-3" edge="1">
          <mxGeometry relative="1" as="geometry" />
        </mxCell>
        <mxCell id="9e54krIU4_uGRQ3oxqOW-2" value="Web Server" style="rounded=1;whiteSpace=wrap;html=1;" parent="9e54krIU4_uGRQ3oxqOW-1" vertex="1">
          <mxGeometry x="490" y="140" width="170" height="190" as="geometry" />
        </mxCell>
        <mxCell id="9e54krIU4_uGRQ3oxqOW-10" style="edgeStyle=orthogonalEdgeStyle;rounded=0;orthogonalLoop=1;jettySize=auto;html=1;entryX=1;entryY=0.5;entryDx=0;entryDy=0;" parent="9e54krIU4_uGRQ3oxqOW-1" source="9e54krIU4_uGRQ3oxqOW-3" target="9e54krIU4_uGRQ3oxqOW-2" edge="1">
          <mxGeometry relative="1" as="geometry" />
        </mxCell>
        <mxCell id="9e54krIU4_uGRQ3oxqOW-3" value="" style="shape=cylinder3;whiteSpace=wrap;html=1;boundedLbl=1;backgroundOutline=1;size=15;" parent="9e54krIU4_uGRQ3oxqOW-1" vertex="1">
          <mxGeometry x="740" y="180" width="60" height="80" as="geometry" />
        </mxCell>
        <mxCell id="9e54krIU4_uGRQ3oxqOW-4" value="" style="endArrow=none;dashed=1;html=1;dashPattern=1 3;strokeWidth=2;" parent="9e54krIU4_uGRQ3oxqOW-1" edge="1">
          <mxGeometry width="50" height="50" relative="1" as="geometry">
            <mxPoint x="320" y="520" as="sourcePoint" />
            <mxPoint x="320" y="40" as="targetPoint" />
          </mxGeometry>
        </mxCell>
        <mxCell id="9e54krIU4_uGRQ3oxqOW-5" value="2GB" style="text;html=1;strokeColor=none;fillColor=none;align=center;verticalAlign=middle;whiteSpace=wrap;rounded=0;" parent="9e54krIU4_uGRQ3oxqOW-1" vertex="1">
          <mxGeometry x="555" y="260" width="40" height="20" as="geometry" />
        </mxCell>
        <mxCell id="9e54krIU4_uGRQ3oxqOW-6" value="Actor" style="shape=umlActor;verticalLabelPosition=bottom;verticalAlign=top;html=1;outlineConnect=0;" parent="9e54krIU4_uGRQ3oxqOW-1" vertex="1">
          <mxGeometry x="30" y="170" width="30" height="60" as="geometry" />
        </mxCell>
        <mxCell id="9e54krIU4_uGRQ3oxqOW-8" style="edgeStyle=orthogonalEdgeStyle;rounded=0;orthogonalLoop=1;jettySize=auto;html=1;" parent="9e54krIU4_uGRQ3oxqOW-1" source="9e54krIU4_uGRQ3oxqOW-7" target="9e54krIU4_uGRQ3oxqOW-2" edge="1">
          <mxGeometry relative="1" as="geometry">
            <mxPoint x="370" y="210" as="targetPoint" />
          </mxGeometry>
        </mxCell>
        <mxCell id="9e54krIU4_uGRQ3oxqOW-7" value="Nokia&lt;br&gt;3310" style="rounded=1;whiteSpace=wrap;html=1;" parent="9e54krIU4_uGRQ3oxqOW-1" vertex="1">
          <mxGeometry x="90" y="180" width="40" height="60" as="geometry" />
        </mxCell>
        <mxCell id="9e54krIU4_uGRQ3oxqOW-11" value="1MB" style="text;html=1;strokeColor=none;fillColor=none;align=center;verticalAlign=middle;whiteSpace=wrap;rounded=0;" parent="9e54krIU4_uGRQ3oxqOW-1" vertex="1">
          <mxGeometry x="440" y="210" width="40" height="20" as="geometry" />
        </mxCell>
        <mxCell id="9e54krIU4_uGRQ3oxqOW-12" value="2GB/1MB" style="text;html=1;strokeColor=none;fillColor=none;align=center;verticalAlign=middle;whiteSpace=wrap;rounded=0;" parent="9e54krIU4_uGRQ3oxqOW-1" vertex="1">
          <mxGeometry x="410" y="240" width="80" height="20" as="geometry" />
        </mxCell>
        <mxCell id="9e54krIU4_uGRQ3oxqOW-13" value="Actor" style="shape=umlActor;verticalLabelPosition=bottom;verticalAlign=top;html=1;outlineConnect=0;" parent="9e54krIU4_uGRQ3oxqOW-1" vertex="1">
          <mxGeometry x="30" y="300" width="30" height="60" as="geometry" />
        </mxCell>
        <mxCell id="9e54krIU4_uGRQ3oxqOW-15" style="edgeStyle=orthogonalEdgeStyle;rounded=0;orthogonalLoop=1;jettySize=auto;html=1;" parent="9e54krIU4_uGRQ3oxqOW-1" source="9e54krIU4_uGRQ3oxqOW-14" target="9e54krIU4_uGRQ3oxqOW-2" edge="1">
          <mxGeometry relative="1" as="geometry" />
        </mxCell>
        <mxCell id="9e54krIU4_uGRQ3oxqOW-14" value="2GB" style="rounded=1;whiteSpace=wrap;html=1;" parent="9e54krIU4_uGRQ3oxqOW-1" vertex="1">
          <mxGeometry x="80" y="310" width="40" height="60" as="geometry" />
        </mxCell>
        <mxCell id="9e54krIU4_uGRQ3oxqOW-16" value="1MB" style="text;html=1;strokeColor=none;fillColor=none;align=center;verticalAlign=middle;whiteSpace=wrap;rounded=0;" parent="9e54krIU4_uGRQ3oxqOW-1" vertex="1">
          <mxGeometry x="130" y="310" width="40" height="20" as="geometry" />
        </mxCell>
        <mxCell id="9e54krIU4_uGRQ3oxqOW-17" value="" style="shape=link;html=1;" parent="9e54krIU4_uGRQ3oxqOW-1" edge="1">
          <mxGeometry width="100" relative="1" as="geometry">
            <mxPoint y="270" as="sourcePoint" />
            <mxPoint x="290" y="270" as="targetPoint" />
          </mxGeometry>
        </mxCell>
        <mxCell id="9e54krIU4_uGRQ3oxqOW-18" value="Back Then" style="text;html=1;align=center;verticalAlign=middle;resizable=0;points=[];autosize=1;strokeColor=none;" parent="9e54krIU4_uGRQ3oxqOW-1" vertex="1">
          <mxGeometry x="25" y="60" width="70" height="20" as="geometry" />
        </mxCell>
        <mxCell id="9e54krIU4_uGRQ3oxqOW-19" value="Now" style="text;html=1;align=center;verticalAlign=middle;resizable=0;points=[];autosize=1;strokeColor=none;" parent="9e54krIU4_uGRQ3oxqOW-1" vertex="1">
          <mxGeometry x="20" y="510" width="40" height="20" as="geometry" />
        </mxCell>
        <mxCell id="9e54krIU4_uGRQ3oxqOW-23" value="Payment" style="rounded=1;whiteSpace=wrap;html=1;" parent="9e54krIU4_uGRQ3oxqOW-1" vertex="1">
          <mxGeometry x="90" y="490" width="70" height="60" as="geometry" />
        </mxCell>
        <mxCell id="9e54krIU4_uGRQ3oxqOW-22" value="Personal DetailsPage" style="rounded=1;whiteSpace=wrap;html=1;" parent="9e54krIU4_uGRQ3oxqOW-1" vertex="1">
          <mxGeometry x="200" y="410" width="60" height="60" as="geometry" />
        </mxCell>
      </root>
    </mxGraphModel>
  </diagram>
  <diagram id="peYOPxG1HAleYgRPZgLn" name="Page-3">
    <mxGraphModel dx="1038" dy="555" grid="1" gridSize="10" guides="1" tooltips="1" connect="1" arrows="1" fold="1" page="1" pageScale="1" pageWidth="850" pageHeight="1100" math="0" shadow="0">
      <root>
        <mxCell id="JD5ZXjllHBfmb8AJ5aW6-0" />
        <mxCell id="JD5ZXjllHBfmb8AJ5aW6-1" parent="JD5ZXjllHBfmb8AJ5aW6-0" />
        <mxCell id="JD5ZXjllHBfmb8AJ5aW6-2" value="1000" style="rounded=1;whiteSpace=wrap;html=1;" vertex="1" parent="JD5ZXjllHBfmb8AJ5aW6-1">
          <mxGeometry x="90" y="60" width="70" height="60" as="geometry" />
        </mxCell>
        <mxCell id="JD5ZXjllHBfmb8AJ5aW6-3" value="1004" style="rounded=1;whiteSpace=wrap;html=1;" vertex="1" parent="JD5ZXjllHBfmb8AJ5aW6-1">
          <mxGeometry x="160" y="60" width="70" height="60" as="geometry" />
        </mxCell>
        <mxCell id="JD5ZXjllHBfmb8AJ5aW6-4" value="" style="rounded=1;whiteSpace=wrap;html=1;" vertex="1" parent="JD5ZXjllHBfmb8AJ5aW6-1">
          <mxGeometry x="230" y="60" width="70" height="60" as="geometry" />
        </mxCell>
        <mxCell id="JD5ZXjllHBfmb8AJ5aW6-5" value="1008" style="rounded=1;whiteSpace=wrap;html=1;" vertex="1" parent="JD5ZXjllHBfmb8AJ5aW6-1">
          <mxGeometry x="230" y="60" width="70" height="60" as="geometry" />
        </mxCell>
        <mxCell id="JD5ZXjllHBfmb8AJ5aW6-6" value="1012" style="rounded=1;whiteSpace=wrap;html=1;" vertex="1" parent="JD5ZXjllHBfmb8AJ5aW6-1">
          <mxGeometry x="300" y="60" width="70" height="60" as="geometry" />
        </mxCell>
        <mxCell id="JD5ZXjllHBfmb8AJ5aW6-7" value="1200" style="rounded=1;whiteSpace=wrap;html=1;" vertex="1" parent="JD5ZXjllHBfmb8AJ5aW6-1">
          <mxGeometry x="600" y="60" width="70" height="60" as="geometry" />
        </mxCell>
        <mxCell id="JD5ZXjllHBfmb8AJ5aW6-8" value="" style="rounded=1;whiteSpace=wrap;html=1;" vertex="1" parent="JD5ZXjllHBfmb8AJ5aW6-1">
          <mxGeometry x="95" y="280" width="55" height="60" as="geometry" />
        </mxCell>
        <mxCell id="JD5ZXjllHBfmb8AJ5aW6-9" value="2023" style="rounded=1;whiteSpace=wrap;html=1;" vertex="1" parent="JD5ZXjllHBfmb8AJ5aW6-1">
          <mxGeometry x="150" y="280" width="40" height="60" as="geometry" />
        </mxCell>
        <mxCell id="JD5ZXjllHBfmb8AJ5aW6-10" value="" style="rounded=1;whiteSpace=wrap;html=1;fontStyle=1" vertex="1" parent="JD5ZXjllHBfmb8AJ5aW6-1">
          <mxGeometry x="300" y="410" width="55" height="60" as="geometry" />
        </mxCell>
        <mxCell id="JD5ZXjllHBfmb8AJ5aW6-11" value="4565" style="rounded=1;whiteSpace=wrap;html=1;fontStyle=1" vertex="1" parent="JD5ZXjllHBfmb8AJ5aW6-1">
          <mxGeometry x="355" y="410" width="40" height="60" as="geometry" />
        </mxCell>
        <mxCell id="JD5ZXjllHBfmb8AJ5aW6-23" style="edgeStyle=orthogonalEdgeStyle;rounded=0;orthogonalLoop=1;jettySize=auto;html=1;" edge="1" parent="JD5ZXjllHBfmb8AJ5aW6-1" target="JD5ZXjllHBfmb8AJ5aW6-11">
          <mxGeometry relative="1" as="geometry">
            <mxPoint x="433" y="450" as="sourcePoint" />
          </mxGeometry>
        </mxCell>
        <mxCell id="JD5ZXjllHBfmb8AJ5aW6-36" style="edgeStyle=orthogonalEdgeStyle;rounded=0;orthogonalLoop=1;jettySize=auto;html=1;" edge="1" parent="JD5ZXjllHBfmb8AJ5aW6-1" source="JD5ZXjllHBfmb8AJ5aW6-13">
          <mxGeometry relative="1" as="geometry">
            <mxPoint x="400" y="450" as="targetPoint" />
            <Array as="points">
              <mxPoint x="450" y="260" />
              <mxPoint x="450" y="450" />
            </Array>
          </mxGeometry>
        </mxCell>
        <mxCell id="JD5ZXjllHBfmb8AJ5aW6-13" value="" style="rounded=1;whiteSpace=wrap;html=1;" vertex="1" parent="JD5ZXjllHBfmb8AJ5aW6-1">
          <mxGeometry x="378" y="230" width="55" height="60" as="geometry" />
        </mxCell>
        <mxCell id="JD5ZXjllHBfmb8AJ5aW6-18" style="edgeStyle=orthogonalEdgeStyle;rounded=0;orthogonalLoop=1;jettySize=auto;html=1;" edge="1" parent="JD5ZXjllHBfmb8AJ5aW6-1" source="JD5ZXjllHBfmb8AJ5aW6-14" target="JD5ZXjllHBfmb8AJ5aW6-16">
          <mxGeometry relative="1" as="geometry" />
        </mxCell>
        <mxCell id="JD5ZXjllHBfmb8AJ5aW6-14" value="5252" style="rounded=1;whiteSpace=wrap;html=1;" vertex="1" parent="JD5ZXjllHBfmb8AJ5aW6-1">
          <mxGeometry x="433" y="230" width="40" height="60" as="geometry" />
        </mxCell>
        <mxCell id="JD5ZXjllHBfmb8AJ5aW6-16" value="" style="rounded=1;whiteSpace=wrap;html=1;" vertex="1" parent="JD5ZXjllHBfmb8AJ5aW6-1">
          <mxGeometry x="550" y="340" width="55" height="60" as="geometry" />
        </mxCell>
        <mxCell id="JD5ZXjllHBfmb8AJ5aW6-17" value="null" style="rounded=1;whiteSpace=wrap;html=1;" vertex="1" parent="JD5ZXjllHBfmb8AJ5aW6-1">
          <mxGeometry x="605" y="340" width="40" height="60" as="geometry" />
        </mxCell>
        <mxCell id="JD5ZXjllHBfmb8AJ5aW6-19" value="null" style="rounded=1;whiteSpace=wrap;html=1;" vertex="1" parent="JD5ZXjllHBfmb8AJ5aW6-1">
          <mxGeometry x="55" y="280" width="40" height="60" as="geometry" />
        </mxCell>
        <mxCell id="JD5ZXjllHBfmb8AJ5aW6-20" value="1000" style="rounded=1;whiteSpace=wrap;html=1;fontStyle=1" vertex="1" parent="JD5ZXjllHBfmb8AJ5aW6-1">
          <mxGeometry x="260" y="410" width="40" height="60" as="geometry" />
        </mxCell>
        <mxCell id="JD5ZXjllHBfmb8AJ5aW6-21" value="" style="edgeStyle=orthogonalEdgeStyle;rounded=0;orthogonalLoop=1;jettySize=auto;html=1;endArrow=none;" edge="1" parent="JD5ZXjllHBfmb8AJ5aW6-1" source="JD5ZXjllHBfmb8AJ5aW6-9" target="JD5ZXjllHBfmb8AJ5aW6-20">
          <mxGeometry relative="1" as="geometry">
            <mxPoint x="190" y="310" as="sourcePoint" />
            <mxPoint x="300" y="455" as="targetPoint" />
          </mxGeometry>
        </mxCell>
        <mxCell id="JD5ZXjllHBfmb8AJ5aW6-22" value="2023" style="rounded=1;whiteSpace=wrap;html=1;" vertex="1" parent="JD5ZXjllHBfmb8AJ5aW6-1">
          <mxGeometry x="340" y="230" width="40" height="60" as="geometry" />
        </mxCell>
        <mxCell id="JD5ZXjllHBfmb8AJ5aW6-24" value="1012" style="rounded=1;whiteSpace=wrap;html=1;" vertex="1" parent="JD5ZXjllHBfmb8AJ5aW6-1">
          <mxGeometry x="370.5" y="130" width="70" height="60" as="geometry" />
        </mxCell>
        <mxCell id="JD5ZXjllHBfmb8AJ5aW6-25" value="1000" style="rounded=1;whiteSpace=wrap;html=1;" vertex="1" parent="JD5ZXjllHBfmb8AJ5aW6-1">
          <mxGeometry x="90" y="130" width="70" height="60" as="geometry" />
        </mxCell>
        <mxCell id="JD5ZXjllHBfmb8AJ5aW6-26" value="1004" style="rounded=1;whiteSpace=wrap;html=1;" vertex="1" parent="JD5ZXjllHBfmb8AJ5aW6-1">
          <mxGeometry x="160" y="130" width="70" height="60" as="geometry" />
        </mxCell>
        <mxCell id="JD5ZXjllHBfmb8AJ5aW6-27" value="" style="rounded=1;whiteSpace=wrap;html=1;" vertex="1" parent="JD5ZXjllHBfmb8AJ5aW6-1">
          <mxGeometry x="230" y="130" width="70" height="60" as="geometry" />
        </mxCell>
        <mxCell id="JD5ZXjllHBfmb8AJ5aW6-28" value="1008" style="rounded=1;whiteSpace=wrap;html=1;" vertex="1" parent="JD5ZXjllHBfmb8AJ5aW6-1">
          <mxGeometry x="230" y="130" width="70" height="60" as="geometry" />
        </mxCell>
        <mxCell id="JD5ZXjllHBfmb8AJ5aW6-29" value="1012" style="rounded=1;whiteSpace=wrap;html=1;" vertex="1" parent="JD5ZXjllHBfmb8AJ5aW6-1">
          <mxGeometry x="300" y="130" width="70" height="60" as="geometry" />
        </mxCell>
        <mxCell id="JD5ZXjllHBfmb8AJ5aW6-31" value="1200" style="rounded=1;whiteSpace=wrap;html=1;" vertex="1" parent="JD5ZXjllHBfmb8AJ5aW6-1">
          <mxGeometry x="670" y="130" width="70" height="60" as="geometry" />
        </mxCell>
      </root>
    </mxGraphModel>
  </diagram>
  <diagram id="OhYaQ7keSAB9IYjACRBV" name="Page-4">
    <mxGraphModel dx="1038" dy="555" grid="1" gridSize="10" guides="1" tooltips="1" connect="1" arrows="1" fold="1" page="1" pageScale="1" pageWidth="850" pageHeight="1100" math="0" shadow="0">
      <root>
        <mxCell id="Wglwg1AtANodWKey4Hu6-0" />
        <mxCell id="Wglwg1AtANodWKey4Hu6-1" parent="Wglwg1AtANodWKey4Hu6-0" />
        <mxCell id="Wglwg1AtANodWKey4Hu6-2" value="" style="shape=cylinder3;whiteSpace=wrap;html=1;boundedLbl=1;backgroundOutline=1;size=15;" vertex="1" parent="Wglwg1AtANodWKey4Hu6-1">
          <mxGeometry x="110" y="200" width="70" height="160" as="geometry" />
        </mxCell>
        <mxCell id="Wglwg1AtANodWKey4Hu6-3" value="" style="shape=cylinder3;whiteSpace=wrap;html=1;boundedLbl=1;backgroundOutline=1;size=15;" vertex="1" parent="Wglwg1AtANodWKey4Hu6-1">
          <mxGeometry x="230" y="200" width="70" height="160" as="geometry" />
        </mxCell>
        <mxCell id="Wglwg1AtANodWKey4Hu6-4" value="" style="shape=cylinder3;whiteSpace=wrap;html=1;boundedLbl=1;backgroundOutline=1;size=15;" vertex="1" parent="Wglwg1AtANodWKey4Hu6-1">
          <mxGeometry x="370" y="200" width="70" height="160" as="geometry" />
        </mxCell>
        <mxCell id="Wglwg1AtANodWKey4Hu6-5" value="" style="shape=cylinder3;whiteSpace=wrap;html=1;boundedLbl=1;backgroundOutline=1;size=15;" vertex="1" parent="Wglwg1AtANodWKey4Hu6-1">
          <mxGeometry x="510" y="200" width="70" height="160" as="geometry" />
        </mxCell>
        <mxCell id="Wglwg1AtANodWKey4Hu6-6" value="" style="shape=cylinder3;whiteSpace=wrap;html=1;boundedLbl=1;backgroundOutline=1;size=15;" vertex="1" parent="Wglwg1AtANodWKey4Hu6-1">
          <mxGeometry x="650" y="200" width="70" height="160" as="geometry" />
        </mxCell>
        <mxCell id="Wglwg1AtANodWKey4Hu6-7" value="AMIT" style="text;html=1;strokeColor=none;fillColor=none;align=center;verticalAlign=middle;whiteSpace=wrap;rounded=0;fontStyle=1" vertex="1" parent="Wglwg1AtANodWKey4Hu6-1">
          <mxGeometry x="40" y="20" width="40" height="20" as="geometry" />
        </mxCell>
        <mxCell id="Wglwg1AtANodWKey4Hu6-8" value="EMILY" style="text;html=1;strokeColor=none;fillColor=none;align=center;verticalAlign=middle;whiteSpace=wrap;rounded=0;fontStyle=1" vertex="1" parent="Wglwg1AtANodWKey4Hu6-1">
          <mxGeometry x="40" y="50" width="40" height="20" as="geometry" />
        </mxCell>
        <mxCell id="Wglwg1AtANodWKey4Hu6-9" value="MILEY" style="text;html=1;strokeColor=none;fillColor=none;align=center;verticalAlign=middle;whiteSpace=wrap;rounded=0;fontStyle=1" vertex="1" parent="Wglwg1AtANodWKey4Hu6-1">
          <mxGeometry x="40" y="80" width="40" height="20" as="geometry" />
        </mxCell>
        <mxCell id="Wglwg1AtANodWKey4Hu6-10" value="1 + 8&amp;nbsp; + 9 + 20 = 38" style="text;html=1;align=center;verticalAlign=middle;resizable=0;points=[];autosize=1;strokeColor=none;" vertex="1" parent="Wglwg1AtANodWKey4Hu6-1">
          <mxGeometry x="80" y="20" width="120" height="20" as="geometry" />
        </mxCell>
        <mxCell id="Wglwg1AtANodWKey4Hu6-11" value="54" style="text;html=1;align=center;verticalAlign=middle;resizable=0;points=[];autosize=1;strokeColor=none;" vertex="1" parent="Wglwg1AtANodWKey4Hu6-1">
          <mxGeometry x="100" y="50" width="30" height="20" as="geometry" />
        </mxCell>
        <mxCell id="Wglwg1AtANodWKey4Hu6-12" value="54" style="text;html=1;align=center;verticalAlign=middle;resizable=0;points=[];autosize=1;strokeColor=none;" vertex="1" parent="Wglwg1AtANodWKey4Hu6-1">
          <mxGeometry x="100" y="80" width="30" height="20" as="geometry" />
        </mxCell>
        <mxCell id="Wglwg1AtANodWKey4Hu6-13" value="1-20" style="text;html=1;strokeColor=none;fillColor=none;align=center;verticalAlign=middle;whiteSpace=wrap;rounded=0;" vertex="1" parent="Wglwg1AtANodWKey4Hu6-1">
          <mxGeometry x="70" y="170" width="40" height="30" as="geometry" />
        </mxCell>
        <mxCell id="Wglwg1AtANodWKey4Hu6-15" value="21-40" style="text;html=1;strokeColor=none;fillColor=none;align=center;verticalAlign=middle;whiteSpace=wrap;rounded=0;" vertex="1" parent="Wglwg1AtANodWKey4Hu6-1">
          <mxGeometry x="230" y="170" width="40" height="30" as="geometry" />
        </mxCell>
        <mxCell id="Wglwg1AtANodWKey4Hu6-16" value="41-60" style="text;html=1;strokeColor=none;fillColor=none;align=center;verticalAlign=middle;whiteSpace=wrap;rounded=0;" vertex="1" parent="Wglwg1AtANodWKey4Hu6-1">
          <mxGeometry x="360" y="170" width="40" height="30" as="geometry" />
        </mxCell>
        <mxCell id="Wglwg1AtANodWKey4Hu6-17" value="AMIT" style="text;html=1;strokeColor=none;fillColor=none;align=center;verticalAlign=middle;whiteSpace=wrap;rounded=0;fontStyle=1" vertex="1" parent="Wglwg1AtANodWKey4Hu6-1">
          <mxGeometry x="240" y="240" width="40" height="20" as="geometry" />
        </mxCell>
        <mxCell id="Wglwg1AtANodWKey4Hu6-18" value="EMILY" style="text;html=1;strokeColor=none;fillColor=none;align=center;verticalAlign=middle;whiteSpace=wrap;rounded=0;fontStyle=1" vertex="1" parent="Wglwg1AtANodWKey4Hu6-1">
          <mxGeometry x="380" y="240" width="40" height="20" as="geometry" />
        </mxCell>
        <mxCell id="Wglwg1AtANodWKey4Hu6-19" value="MILEY" style="text;html=1;strokeColor=none;fillColor=none;align=center;verticalAlign=middle;whiteSpace=wrap;rounded=0;fontStyle=1" vertex="1" parent="Wglwg1AtANodWKey4Hu6-1">
          <mxGeometry x="380" y="260" width="40" height="20" as="geometry" />
        </mxCell>
        <mxCell id="Wglwg1AtANodWKey4Hu6-20" value="AMIT" style="text;html=1;strokeColor=none;fillColor=none;align=center;verticalAlign=middle;whiteSpace=wrap;rounded=0;fontStyle=1" vertex="1" parent="Wglwg1AtANodWKey4Hu6-1">
          <mxGeometry x="405" y="20" width="40" height="20" as="geometry" />
        </mxCell>
        <mxCell id="Wglwg1AtANodWKey4Hu6-21" value="RAVI" style="text;html=1;strokeColor=none;fillColor=none;align=center;verticalAlign=middle;whiteSpace=wrap;rounded=0;fontStyle=1" vertex="1" parent="Wglwg1AtANodWKey4Hu6-1">
          <mxGeometry x="405" y="60" width="40" height="20" as="geometry" />
        </mxCell>
      </root>
    </mxGraphModel>
  </diagram>
</mxfile>
